<mxfile host="app.diagrams.net" modified="2023-10-17T18:01:09.440Z" agent="Mozilla/5.0 (Windows NT 10.0; Win64; x64) AppleWebKit/537.36 (KHTML, like Gecko) Chrome/117.0.0.0 Safari/537.36" etag="yeSxsFH4N2jdV0uGT8FU" version="22.0.4" type="device">
  <diagram name="Страница — 1" id="798bjySBHlYkIlasKo-q">
    <mxGraphModel dx="1877" dy="534" grid="1" gridSize="10" guides="1" tooltips="1" connect="1" arrows="1" fold="1" page="1" pageScale="1" pageWidth="827" pageHeight="1169" math="0" shadow="0">
      <root>
        <mxCell id="0" />
        <mxCell id="1" parent="0" />
        <mxCell id="XE47q8h64ok82hr3pXZ2-4" value="" style="edgeStyle=orthogonalEdgeStyle;rounded=0;orthogonalLoop=1;jettySize=auto;html=1;entryX=0.5;entryY=0;entryDx=0;entryDy=0;" edge="1" parent="1" source="XE47q8h64ok82hr3pXZ2-1" target="XE47q8h64ok82hr3pXZ2-5">
          <mxGeometry relative="1" as="geometry">
            <mxPoint x="414" y="90" as="targetPoint" />
          </mxGeometry>
        </mxCell>
        <mxCell id="XE47q8h64ok82hr3pXZ2-1" value="&lt;font face=&quot;Times New Roman&quot; style=&quot;font-size: 18px;&quot;&gt;Начало&lt;/font&gt;" style="strokeWidth=2;html=1;shape=mxgraph.flowchart.start_1;whiteSpace=wrap;" vertex="1" parent="1">
          <mxGeometry x="359" y="20" width="110" height="40" as="geometry" />
        </mxCell>
        <mxCell id="XE47q8h64ok82hr3pXZ2-2" value="&lt;font face=&quot;Times New Roman&quot; style=&quot;font-size: 18px;&quot;&gt;Конец&lt;/font&gt;" style="strokeWidth=2;html=1;shape=mxgraph.flowchart.start_1;whiteSpace=wrap;" vertex="1" parent="1">
          <mxGeometry x="240" y="750" width="110" height="40" as="geometry" />
        </mxCell>
        <mxCell id="XE47q8h64ok82hr3pXZ2-8" value="" style="edgeStyle=orthogonalEdgeStyle;rounded=0;orthogonalLoop=1;jettySize=auto;html=1;" edge="1" parent="1" source="XE47q8h64ok82hr3pXZ2-5" target="XE47q8h64ok82hr3pXZ2-7">
          <mxGeometry relative="1" as="geometry" />
        </mxCell>
        <mxCell id="XE47q8h64ok82hr3pXZ2-5" value="vozrast" style="shape=parallelogram;perimeter=parallelogramPerimeter;whiteSpace=wrap;html=1;fixedSize=1;fontSize=18;fontFamily=Times New Roman;strokeWidth=2;" vertex="1" parent="1">
          <mxGeometry x="362" y="100" width="104" height="40" as="geometry" />
        </mxCell>
        <mxCell id="XE47q8h64ok82hr3pXZ2-14" value="" style="edgeStyle=orthogonalEdgeStyle;rounded=0;orthogonalLoop=1;jettySize=auto;html=1;exitX=1;exitY=0.5;exitDx=0;exitDy=0;" edge="1" parent="1" source="XE47q8h64ok82hr3pXZ2-7" target="XE47q8h64ok82hr3pXZ2-13">
          <mxGeometry relative="1" as="geometry" />
        </mxCell>
        <mxCell id="XE47q8h64ok82hr3pXZ2-16" value="" style="edgeStyle=orthogonalEdgeStyle;rounded=0;orthogonalLoop=1;jettySize=auto;html=1;exitX=0;exitY=0.5;exitDx=0;exitDy=0;" edge="1" parent="1" source="XE47q8h64ok82hr3pXZ2-7" target="XE47q8h64ok82hr3pXZ2-15">
          <mxGeometry relative="1" as="geometry" />
        </mxCell>
        <mxCell id="XE47q8h64ok82hr3pXZ2-7" value="vozrast &amp;gt;= 18 &amp;amp;&amp;amp; vozrast &amp;lt;= 27" style="rhombus;whiteSpace=wrap;html=1;fontSize=18;fontFamily=Times New Roman;strokeWidth=2;" vertex="1" parent="1">
          <mxGeometry x="214" y="180" width="400" height="60" as="geometry" />
        </mxCell>
        <mxCell id="XE47q8h64ok82hr3pXZ2-9" value="&lt;font style=&quot;font-size: 18px;&quot; face=&quot;Times New Roman&quot;&gt;+&lt;/font&gt;" style="text;html=1;strokeColor=none;fillColor=none;align=center;verticalAlign=middle;whiteSpace=wrap;rounded=0;" vertex="1" parent="1">
          <mxGeometry x="580" y="170" width="60" height="30" as="geometry" />
        </mxCell>
        <mxCell id="XE47q8h64ok82hr3pXZ2-10" value="&lt;font style=&quot;font-size: 18px;&quot; face=&quot;Times New Roman&quot;&gt;-&lt;br&gt;&lt;/font&gt;" style="text;html=1;strokeColor=none;fillColor=none;align=center;verticalAlign=middle;whiteSpace=wrap;rounded=0;" vertex="1" parent="1">
          <mxGeometry x="200" y="170" width="60" height="30" as="geometry" />
        </mxCell>
        <mxCell id="XE47q8h64ok82hr3pXZ2-13" value="&lt;font style=&quot;font-size: 14px;&quot;&gt;человек подлежит призыву на срочную службу или может служить по контракту&lt;/font&gt;" style="shape=parallelogram;perimeter=parallelogramPerimeter;whiteSpace=wrap;html=1;fixedSize=1;fontSize=18;fontFamily=Times New Roman;strokeWidth=2;" vertex="1" parent="1">
          <mxGeometry x="570" y="260" width="270" height="75" as="geometry" />
        </mxCell>
        <mxCell id="XE47q8h64ok82hr3pXZ2-20" style="edgeStyle=orthogonalEdgeStyle;rounded=0;orthogonalLoop=1;jettySize=auto;html=1;entryX=0.5;entryY=0;entryDx=0;entryDy=0;exitX=1;exitY=0.5;exitDx=0;exitDy=0;" edge="1" parent="1" source="XE47q8h64ok82hr3pXZ2-15" target="XE47q8h64ok82hr3pXZ2-19">
          <mxGeometry relative="1" as="geometry" />
        </mxCell>
        <mxCell id="XE47q8h64ok82hr3pXZ2-22" value="" style="edgeStyle=orthogonalEdgeStyle;rounded=0;orthogonalLoop=1;jettySize=auto;html=1;exitX=0;exitY=0.5;exitDx=0;exitDy=0;" edge="1" parent="1" source="XE47q8h64ok82hr3pXZ2-15" target="XE47q8h64ok82hr3pXZ2-21">
          <mxGeometry relative="1" as="geometry" />
        </mxCell>
        <mxCell id="XE47q8h64ok82hr3pXZ2-15" value="vozrast&amp;gt;=28 &amp;amp;&amp;amp; vozrast &amp;lt;= 59" style="rhombus;whiteSpace=wrap;html=1;fontSize=18;fontFamily=Times New Roman;strokeWidth=2;" vertex="1" parent="1">
          <mxGeometry x="80" y="290" width="400" height="60" as="geometry" />
        </mxCell>
        <mxCell id="XE47q8h64ok82hr3pXZ2-17" value="&lt;font style=&quot;font-size: 18px;&quot; face=&quot;Times New Roman&quot;&gt;+&lt;/font&gt;" style="text;html=1;strokeColor=none;fillColor=none;align=center;verticalAlign=middle;whiteSpace=wrap;rounded=0;" vertex="1" parent="1">
          <mxGeometry x="430" y="282.5" width="60" height="30" as="geometry" />
        </mxCell>
        <mxCell id="XE47q8h64ok82hr3pXZ2-18" value="&lt;font style=&quot;font-size: 18px;&quot; face=&quot;Times New Roman&quot;&gt;-&lt;br&gt;&lt;/font&gt;" style="text;html=1;strokeColor=none;fillColor=none;align=center;verticalAlign=middle;whiteSpace=wrap;rounded=0;" vertex="1" parent="1">
          <mxGeometry x="50" y="282.5" width="60" height="30" as="geometry" />
        </mxCell>
        <mxCell id="XE47q8h64ok82hr3pXZ2-19" value="&lt;font style=&quot;font-size: 14px;&quot;&gt;заполняющий анкету может служить по контракту&lt;/font&gt;" style="shape=parallelogram;perimeter=parallelogramPerimeter;whiteSpace=wrap;html=1;fixedSize=1;fontSize=18;fontFamily=Times New Roman;strokeWidth=2;" vertex="1" parent="1">
          <mxGeometry x="430" y="400" width="200" height="50" as="geometry" />
        </mxCell>
        <mxCell id="XE47q8h64ok82hr3pXZ2-26" style="edgeStyle=orthogonalEdgeStyle;rounded=0;orthogonalLoop=1;jettySize=auto;html=1;entryX=0.5;entryY=0;entryDx=0;entryDy=0;exitX=1;exitY=0.5;exitDx=0;exitDy=0;" edge="1" parent="1" source="XE47q8h64ok82hr3pXZ2-21" target="XE47q8h64ok82hr3pXZ2-25">
          <mxGeometry relative="1" as="geometry" />
        </mxCell>
        <mxCell id="XE47q8h64ok82hr3pXZ2-28" value="" style="edgeStyle=orthogonalEdgeStyle;rounded=0;orthogonalLoop=1;jettySize=auto;html=1;exitX=0;exitY=0.5;exitDx=0;exitDy=0;" edge="1" parent="1" source="XE47q8h64ok82hr3pXZ2-21" target="XE47q8h64ok82hr3pXZ2-27">
          <mxGeometry relative="1" as="geometry" />
        </mxCell>
        <mxCell id="XE47q8h64ok82hr3pXZ2-21" value="vozrast &amp;gt; 0 &amp;amp;&amp;amp; vozrast &amp;lt; 18 || vozrast &amp;gt; 59" style="rhombus;whiteSpace=wrap;html=1;fontSize=18;fontFamily=Times New Roman;strokeWidth=2;" vertex="1" parent="1">
          <mxGeometry x="-30" y="430" width="420" height="72.5" as="geometry" />
        </mxCell>
        <mxCell id="XE47q8h64ok82hr3pXZ2-23" value="&lt;font style=&quot;font-size: 18px;&quot; face=&quot;Times New Roman&quot;&gt;+&lt;/font&gt;" style="text;html=1;strokeColor=none;fillColor=none;align=center;verticalAlign=middle;whiteSpace=wrap;rounded=0;" vertex="1" parent="1">
          <mxGeometry x="340" y="430" width="60" height="30" as="geometry" />
        </mxCell>
        <mxCell id="XE47q8h64ok82hr3pXZ2-24" value="&lt;font style=&quot;font-size: 18px;&quot; face=&quot;Times New Roman&quot;&gt;-&lt;br&gt;&lt;/font&gt;" style="text;html=1;strokeColor=none;fillColor=none;align=center;verticalAlign=middle;whiteSpace=wrap;rounded=0;" vertex="1" parent="1">
          <mxGeometry x="-50" y="430" width="60" height="30" as="geometry" />
        </mxCell>
        <mxCell id="XE47q8h64ok82hr3pXZ2-25" value="&lt;font style=&quot;font-size: 14px;&quot;&gt;заполняющий находится в непризывном возрасте&lt;/font&gt;" style="shape=parallelogram;perimeter=parallelogramPerimeter;whiteSpace=wrap;html=1;fixedSize=1;fontSize=18;fontFamily=Times New Roman;strokeWidth=2;" vertex="1" parent="1">
          <mxGeometry x="380" y="530" width="200" height="50" as="geometry" />
        </mxCell>
        <mxCell id="XE47q8h64ok82hr3pXZ2-30" style="edgeStyle=orthogonalEdgeStyle;rounded=0;orthogonalLoop=1;jettySize=auto;html=1;entryX=0.5;entryY=0;entryDx=0;entryDy=0;exitX=1;exitY=0.5;exitDx=0;exitDy=0;" edge="1" parent="1" source="XE47q8h64ok82hr3pXZ2-27" target="XE47q8h64ok82hr3pXZ2-29">
          <mxGeometry relative="1" as="geometry" />
        </mxCell>
        <mxCell id="XE47q8h64ok82hr3pXZ2-27" value="vozrast &amp;lt; 0" style="rhombus;whiteSpace=wrap;html=1;fontSize=18;fontFamily=Times New Roman;strokeWidth=2;" vertex="1" parent="1">
          <mxGeometry x="-140" y="530" width="160" height="40" as="geometry" />
        </mxCell>
        <mxCell id="XE47q8h64ok82hr3pXZ2-29" value="&lt;font style=&quot;font-size: 14px;&quot;&gt;Ошибка! Вы указали неположительный возраст, введите возраст снова.&lt;/font&gt;" style="shape=parallelogram;perimeter=parallelogramPerimeter;whiteSpace=wrap;html=1;fixedSize=1;fontSize=18;fontFamily=Times New Roman;strokeWidth=2;" vertex="1" parent="1">
          <mxGeometry y="610" width="190" height="80" as="geometry" />
        </mxCell>
        <mxCell id="XE47q8h64ok82hr3pXZ2-31" value="&lt;font style=&quot;font-size: 18px;&quot; face=&quot;Times New Roman&quot;&gt;+&lt;/font&gt;" style="text;html=1;strokeColor=none;fillColor=none;align=center;verticalAlign=middle;whiteSpace=wrap;rounded=0;" vertex="1" parent="1">
          <mxGeometry x="-20" y="510" width="60" height="30" as="geometry" />
        </mxCell>
        <mxCell id="XE47q8h64ok82hr3pXZ2-32" value="&lt;font style=&quot;font-size: 18px;&quot; face=&quot;Times New Roman&quot;&gt;-&lt;br&gt;&lt;/font&gt;" style="text;html=1;strokeColor=none;fillColor=none;align=center;verticalAlign=middle;whiteSpace=wrap;rounded=0;" vertex="1" parent="1">
          <mxGeometry x="-180" y="510" width="60" height="30" as="geometry" />
        </mxCell>
        <mxCell id="XE47q8h64ok82hr3pXZ2-33" style="edgeStyle=orthogonalEdgeStyle;rounded=0;orthogonalLoop=1;jettySize=auto;html=1;entryX=0.5;entryY=0;entryDx=0;entryDy=0;entryPerimeter=0;exitX=0;exitY=0.5;exitDx=0;exitDy=0;" edge="1" parent="1" source="XE47q8h64ok82hr3pXZ2-27" target="XE47q8h64ok82hr3pXZ2-2">
          <mxGeometry relative="1" as="geometry">
            <Array as="points">
              <mxPoint x="-160" y="550" />
              <mxPoint x="-160" y="700" />
              <mxPoint x="295" y="700" />
            </Array>
          </mxGeometry>
        </mxCell>
        <mxCell id="XE47q8h64ok82hr3pXZ2-34" style="edgeStyle=orthogonalEdgeStyle;rounded=0;orthogonalLoop=1;jettySize=auto;html=1;entryX=0.5;entryY=0;entryDx=0;entryDy=0;entryPerimeter=0;" edge="1" parent="1" source="XE47q8h64ok82hr3pXZ2-29" target="XE47q8h64ok82hr3pXZ2-2">
          <mxGeometry relative="1" as="geometry">
            <Array as="points">
              <mxPoint x="295" y="650" />
            </Array>
          </mxGeometry>
        </mxCell>
        <mxCell id="XE47q8h64ok82hr3pXZ2-35" style="edgeStyle=orthogonalEdgeStyle;rounded=0;orthogonalLoop=1;jettySize=auto;html=1;entryX=0.5;entryY=0;entryDx=0;entryDy=0;entryPerimeter=0;" edge="1" parent="1" source="XE47q8h64ok82hr3pXZ2-25" target="XE47q8h64ok82hr3pXZ2-2">
          <mxGeometry relative="1" as="geometry" />
        </mxCell>
        <mxCell id="XE47q8h64ok82hr3pXZ2-36" style="edgeStyle=orthogonalEdgeStyle;rounded=0;orthogonalLoop=1;jettySize=auto;html=1;entryX=0.5;entryY=0;entryDx=0;entryDy=0;entryPerimeter=0;" edge="1" parent="1" source="XE47q8h64ok82hr3pXZ2-19" target="XE47q8h64ok82hr3pXZ2-2">
          <mxGeometry relative="1" as="geometry">
            <Array as="points">
              <mxPoint x="660" y="425" />
              <mxPoint x="660" y="650" />
              <mxPoint x="295" y="650" />
            </Array>
          </mxGeometry>
        </mxCell>
        <mxCell id="XE47q8h64ok82hr3pXZ2-38" style="edgeStyle=orthogonalEdgeStyle;rounded=0;orthogonalLoop=1;jettySize=auto;html=1;entryX=0.5;entryY=0;entryDx=0;entryDy=0;entryPerimeter=0;" edge="1" parent="1" source="XE47q8h64ok82hr3pXZ2-13" target="XE47q8h64ok82hr3pXZ2-2">
          <mxGeometry relative="1" as="geometry">
            <Array as="points">
              <mxPoint x="705" y="700" />
              <mxPoint x="295" y="700" />
            </Array>
          </mxGeometry>
        </mxCell>
      </root>
    </mxGraphModel>
  </diagram>
</mxfile>
